# xmcd
#
# Track frame offsets: 
#        150
#        16665
#        29387
#        43290
#        57687
#        72312
#        86075
#        111085
#        129000
#        140692
#        154210
#
# Disc length: 2270 seconds
#
# Revision: 3
# Processed by: cddbd v1.5.2PL0 Copyright (c) Steve Scherf et al.
# Submitted via: ExactAudioCopy v0.95a5
#
DISCID=9808dc0b
DTITLE=Lou Rawls - At Last
DYEAR=1989
DGENRE=Blues
TTITLE0=At Last
TTITLE1=Two Years of Torture
TTITLE2=Fine Brown Frame
TTITLE3=Good Intentions
TTITLE4=That's Where It's At
TTITLE5=If I Were A Magician
TTITLE6=You Can't Go Home
TTITLE7=Room With A View
TTITLE8=After The Lights Go Down Low
TTITLE9=She's No Lady
TTITLE10=Oh, What a Nite
EXTD=
EXTT0=
EXTT1=
EXTT2=
EXTT3=Lou Rawls
EXTT4=
EXTT5=
EXTT6=
EXTT7=
EXTT8=
EXTT9=Lou Rawls
EXTT10=
PLAYORDER=
